<svg width="500" height="426" viewBox="0 0 500 426" fill="none" xmlns="http://www.w3.org/2000/svg">
<g clip-path="url(#clip0_291_204)">
<path d="M443.92 275H263.17C259.94 275 257.31 272.37 257.31 269.14V5.86C257.31 2.63 259.94 0 263.17 0H443.92C447.15 0 449.78 2.63 449.78 5.86V269.13C449.78 272.37 447.15 275 443.92 275ZM263.17 0.25C260.08 0.25 257.56 2.77 257.56 5.86V269.13C257.56 272.22 260.08 274.74 263.17 274.74H443.92C447.01 274.74 449.53 272.22 449.53 269.13V5.86C449.53 2.77 447.01 0.25 443.92 0.25H263.17Z" fill="#E0E0E0"/>
<path d="M235.49 275H54.7501C51.5201 275 48.8901 272.37 48.8901 269.14V5.86C48.8901 2.63 51.5201 0 54.7501 0H235.5C238.73 0 241.36 2.63 241.36 5.86V269.13C241.35 272.37 238.73 275 235.49 275ZM54.7501 0.25C51.6601 0.25 49.1401 2.77 49.1401 5.86V269.13C49.1401 272.22 51.6601 274.74 54.7501 274.74H235.5C238.59 274.74 241.11 272.22 241.11 269.13V5.86C241.11 2.77 238.59 0.25 235.5 0.25H54.7501Z" fill="#E0E0E0"/>
<path d="M500 336.07H0V336.32H500V336.07Z" fill="#E0E0E0"/>
<path d="M67.7299 350.33H51.6699V350.58H67.7299V350.33Z" fill="#E0E0E0"/>
<path d="M223.88 347.62H170.35V347.87H223.88V347.62Z" fill="#E0E0E0"/>
<path d="M104.98 359.62H68.73V359.87H104.98V359.62Z" fill="#E0E0E0"/>
<path d="M421.54 347.49H378.35V347.74H421.54V347.49Z" fill="#E0E0E0"/>
<path d="M436.78 347.49H430.45V347.74H436.78V347.49Z" fill="#E0E0E0"/>
<path d="M370.1 353.72H316.21V353.97H370.1V353.72Z" fill="#E0E0E0"/>
<path d="M142.09 13.6201H77.3101V135.74H142.09V13.6201Z" fill="#E6E6E6"/>
<path d="M138.91 13.6201H62.8198V135.74H138.91V13.6201Z" fill="#F0F0F0"/>
<path d="M127.3 24.4697H74.3799V124.89H127.3V24.4697Z" fill="white"/>
<path d="M98.4299 47.7299C95.7699 51.1199 93.6699 54.8699 92.2699 58.9499C90.8599 63.0599 89.9499 67.6699 90.6399 71.9999C91.2299 75.6899 93.4199 79.2699 96.9699 80.7499C100.78 82.3399 104.78 80.8199 107.84 78.3899C110.68 76.1299 114.34 72.1799 113.39 68.2199C112.4 64.0899 107.47 63.2699 104.06 64.6599C96.2499 67.8399 92.5399 76.8199 91.9399 84.6799C91.3099 92.9899 92.6599 106.69 102.93 108.53C104.82 108.87 105.63 105.98 103.73 105.64C96.4099 104.32 95.1399 95.3799 94.8799 89.2999C94.5899 82.5299 95.9799 75.2799 100.97 70.3499C102.92 68.4299 106.42 65.7899 109.24 67.4299C112.5 69.3299 108.77 73.4299 107.08 75.0599C104.93 77.1399 101.86 79.0799 98.7499 78.2199C95.8199 77.4099 94.1099 74.4599 93.5999 71.6399C92.8999 67.7899 93.8599 63.5899 95.0899 59.9399C96.3199 56.2999 98.1799 52.8599 100.55 49.8399C101.73 48.3399 99.6299 46.2099 98.4299 47.7299Z" fill="#F0F0F0"/>
<path d="M433.76 24.5098H378.49V95.4298H433.76V24.5098Z" fill="#E6E6E6"/>
<path d="M431.06 24.5098H366.13V95.4298H431.06V24.5098Z" fill="#F0F0F0"/>
<path d="M424.78 30.8096H372.11V89.1296H424.78V30.8096Z" fill="white"/>
<path d="M408.43 49.4395H389.42V70.4895H408.43V49.4395Z" fill="#F0F0F0"/>
<path d="M433.76 123.41H378.49V194.33H433.76V123.41Z" fill="#E6E6E6"/>
<path d="M431.06 123.41H366.13V194.33H431.06V123.41Z" fill="#F0F0F0"/>
<path d="M424.78 129.71H372.11V188.03H424.78V129.71Z" fill="white"/>
<path d="M408.43 148.351H389.42V169.401H408.43V148.351Z" fill="#F0F0F0"/>
<path d="M181.2 261.22H48.8799V323.37H181.2V261.22Z" fill="#EBEBEB"/>
<path d="M59.6999 320.43L48.8799 419.86H55.8499L76.6699 320.59L59.6999 320.43Z" fill="#EBEBEB"/>
<path d="M173.43 320.43L184.25 419.86H177.28L156.46 320.59L173.43 320.43Z" fill="#EBEBEB"/>
<path d="M82.3001 243.97L88.1101 261.22H77.3701L82.3001 243.97Z" fill="#E0E0E0"/>
<path d="M62.04 261.22H82.3L88.11 233.05H67.87L62.04 261.22Z" fill="#E6E6E6"/>
<path d="M80.1803 258.52L84.8803 235.74H69.9803L65.2803 258.52H80.1803Z" fill="white"/>
<path d="M119.13 242.74C116.99 237.55 117.18 231.7 119.66 226.67C123.9 218.77 125.14 216.82 122.29 215.18C119.44 213.55 118.36 221.56 118.36 221.56C117.01 217.94 116.87 213.99 117.96 210.28C119.83 204.51 121.02 195.1 118.43 194.1C115.85 193.1 117.96 205.83 115.8 210.17C114.67 207.12 113.93 203.93 113.61 200.68C113.32 196.04 113.79 188.66 111.77 186.77C109.74 184.87 108.45 186.16 110.43 196.39C111.63 202.47 112.29 208.64 112.41 214.83C112.41 214.83 108.01 201.42 105.06 201.02C102.11 200.62 102.11 204.97 104.64 208.74C107.17 212.51 112.04 219.28 112.86 222.73C112.86 222.73 108.01 212.64 103.69 215.75C99.3697 218.86 107.46 224.92 111.07 227.13C114.68 229.34 117.21 243.15 117.21 243.15L119.13 242.74Z" fill="#E0E0E0"/>
<path d="M116.21 245.93C118.28 240.73 118.02 234.88 115.5 229.88C111.15 221.98 109.91 220.1 112.6 218.44C115.29 216.78 116.61 224.76 116.61 224.76C117.91 221.12 118 217.16 116.87 213.46C114.92 207.72 113.63 198.34 116.18 197.31C118.74 196.28 116.81 209.01 119.08 213.33C120.18 210.26 120.88 207.07 121.16 203.82C121.4 199.18 120.84 191.81 122.85 189.88C124.85 187.96 126.17 189.22 124.3 199.5C123.18 205.59 122.59 211.76 122.53 217.94C122.53 217.94 126.77 204.48 129.72 204.03C132.67 203.58 132.72 207.96 130.22 211.75C127.72 215.54 122.95 222.29 122.32 225.87C122.32 225.87 127.01 215.7 131.38 218.73C135.75 221.76 127.72 227.98 124.13 230.22C120.55 232.46 118.18 246.35 118.18 246.35L116.21 245.93Z" fill="#EBEBEB"/>
<path d="M132.86 240.13H103.03L105.46 261.47H130.46L132.86 240.13Z" fill="#E0E0E0"/>
<path d="M171.46 256.67V260.81H172.13V261.48H141.19C139.68 261.48 138.45 260.25 138.45 258.74C138.45 257.23 139.68 256 141.19 256H172.13V256.67H171.46Z" fill="#E0E0E0"/>
<path opacity="0.3" d="M171.46 256.67V260.81H172.13V261.48H156.5C154.99 261.48 153.76 260.25 153.76 258.74C153.76 257.23 154.99 256 156.5 256H172.12V256.67H171.46Z" fill="white"/>
<path d="M171.46 256.67V260.81H156.5C155.35 260.83 154.4 259.92 154.38 258.77C154.38 258.76 154.38 258.75 154.38 258.74C154.37 257.6 155.29 256.68 156.42 256.67C156.43 256.67 156.44 256.67 156.45 256.67H171.46Z" fill="white"/>
<path d="M174.78 251.19V255.33H175.45V256H144.51C143 256 141.77 254.77 141.77 253.26C141.77 251.75 143 250.52 144.51 250.52H175.45V251.19H174.78Z" fill="#E0E0E0"/>
<path d="M174.78 251.19V255.33H175.45V256H159.83C158.32 256 157.09 254.77 157.09 253.26C157.09 251.75 158.32 250.52 159.83 250.52H175.45V251.19H174.78Z" fill="#E6E6E6"/>
<path d="M174.78 251.189V255.329H159.83C158.69 255.319 157.77 254.399 157.76 253.259C157.75 252.119 158.67 251.199 159.8 251.189C159.81 251.189 159.82 251.189 159.83 251.189H174.78Z" fill="white"/>
<path d="M170.6 245.72V249.86H171.27V250.53H140.33C138.82 250.53 137.59 249.3 137.59 247.79C137.59 246.28 138.82 245.05 140.33 245.05H171.27V245.72H170.6Z" fill="#E0E0E0"/>
<path d="M170.6 245.72V249.86H171.27V250.53H155.71C154.2 250.53 152.97 249.3 152.97 247.79C152.97 246.28 154.2 245.05 155.71 245.05H171.33V245.72H170.6Z" fill="#E6E6E6"/>
<path d="M170.6 245.72V249.86H155.71C154.56 249.89 153.6 248.98 153.57 247.83C153.57 247.82 153.57 247.81 153.57 247.8C153.55 246.66 154.46 245.73 155.6 245.72C155.64 245.72 155.67 245.72 155.71 245.72H170.6Z" fill="white"/>
<path d="M174.01 269.39H56.6099V301.19H174.01V269.39Z" stroke="#E0E0E0" stroke-miterlimit="10"/>
<path d="M121.36 285.29C121.36 287.17 119.83 288.7 117.95 288.7C116.07 288.7 114.54 287.17 114.54 285.29C114.54 283.41 116.07 281.88 117.95 281.88C119.83 281.88 121.36 283.41 121.36 285.29Z" fill="#E0E0E0"/>
<path d="M457.3 419.86C457.3 423.22 364.49 425.95 250 425.95C135.51 425.95 42.7002 423.23 42.7002 419.86C42.7002 416.5 135.51 413.77 250 413.77C364.49 413.77 457.3 416.5 457.3 419.86Z" fill="#F5F5F5"/>
<path d="M139.04 375.831C131.82 375.831 125.51 373.391 120.12 368.511C114.73 363.631 112.04 356.811 112.04 348.041C112.04 340.261 114.65 333.711 119.86 328.401C125.07 323.091 131.47 320.431 139.04 320.431C146.5 320.431 152.78 323.091 157.87 328.401C162.96 333.711 165.51 340.261 165.51 348.041C165.51 356.691 162.85 363.481 157.52 368.421C152.19 373.361 146.03 375.831 139.04 375.831Z" fill="#407BFF"/>
<path d="M55.8501 179.91C55.8501 168.48 59.3701 156.9 66.4001 145.17C73.4401 133.44 83.7001 123.73 97.1901 116.03C110.68 108.33 126.43 104.48 144.42 104.48C161.14 104.48 175.91 107.7 188.71 114.13C201.51 120.57 211.4 129.32 218.38 140.39C225.36 151.46 228.85 163.49 228.85 176.48C228.85 186.71 226.86 195.67 222.88 203.37C218.9 211.07 214.17 217.72 208.69 223.31C203.21 228.9 193.38 238.32 179.19 251.55C175.27 255.28 172.13 258.56 169.76 261.38C167.4 264.21 165.64 266.79 164.48 269.14C163.32 271.49 162.43 273.83 161.8 276.18C161.17 278.53 160.21 282.65 158.95 288.54C156.76 301.05 149.9 307.31 138.36 307.31C132.36 307.31 127.32 305.26 123.22 301.17C119.13 297.08 117.08 291 117.08 282.94C117.08 272.83 118.58 264.08 121.58 256.68C124.58 249.28 128.56 242.78 133.52 237.19C138.48 231.6 145.17 224.95 153.59 217.25C160.97 210.51 166.31 205.43 169.59 202C172.88 198.57 175.64 194.75 177.89 190.54C180.14 186.33 181.26 181.76 181.26 176.83C181.26 167.21 177.83 159.09 170.97 152.47C164.11 145.86 155.26 142.54 144.42 142.54C131.73 142.54 122.39 145.88 116.39 152.56C110.39 159.24 105.32 169.07 101.17 182.06C97.2501 195.66 89.8101 202.45 78.8501 202.45C72.3901 202.45 66.9401 200.08 62.5001 195.32C58.0701 190.59 55.8501 185.44 55.8501 179.91Z" fill="#407BFF"/>
<g opacity="0.3">
<path d="M139.04 375.831C131.82 375.831 125.51 373.391 120.12 368.511C114.73 363.631 112.04 356.811 112.04 348.041C112.04 340.261 114.65 333.711 119.86 328.401C125.07 323.091 131.47 320.431 139.04 320.431C146.5 320.431 152.78 323.091 157.87 328.401C162.96 333.711 165.51 340.261 165.51 348.041C165.51 356.691 162.85 363.481 157.52 368.421C152.19 373.361 146.03 375.831 139.04 375.831Z" fill="black"/>
<path d="M55.8501 179.91C55.8501 168.48 59.3701 156.9 66.4001 145.17C73.4401 133.44 83.7001 123.73 97.1901 116.03C110.68 108.33 126.43 104.48 144.42 104.48C161.14 104.48 175.91 107.7 188.71 114.13C201.51 120.57 211.4 129.32 218.38 140.39C225.36 151.46 228.85 163.49 228.85 176.48C228.85 186.71 226.86 195.67 222.88 203.37C218.9 211.07 214.17 217.72 208.69 223.31C203.21 228.9 193.38 238.32 179.19 251.55C175.27 255.28 172.13 258.56 169.76 261.38C167.4 264.21 165.64 266.79 164.48 269.14C163.32 271.49 162.43 273.83 161.8 276.18C161.17 278.53 160.21 282.65 158.95 288.54C156.76 301.05 149.9 307.31 138.36 307.31C132.36 307.31 127.32 305.26 123.22 301.17C119.13 297.08 117.08 291 117.08 282.94C117.08 272.83 118.58 264.08 121.58 256.68C124.58 249.28 128.56 242.78 133.52 237.19C138.48 231.6 145.17 224.95 153.59 217.25C160.97 210.51 166.31 205.43 169.59 202C172.88 198.57 175.64 194.75 177.89 190.54C180.14 186.33 181.26 181.76 181.26 176.83C181.26 167.21 177.83 159.09 170.97 152.47C164.11 145.86 155.26 142.54 144.42 142.54C131.73 142.54 122.39 145.88 116.39 152.56C110.39 159.24 105.32 169.07 101.17 182.06C97.2501 195.66 89.8101 202.45 78.8501 202.45C72.3901 202.45 66.9401 200.08 62.5001 195.32C58.0701 190.59 55.8501 185.44 55.8501 179.91Z" fill="black"/>
</g>
<path d="M139.04 368.55C131.82 368.55 125.51 366.11 120.12 361.23C114.73 356.35 112.04 349.53 112.04 340.76C112.04 332.98 114.65 326.43 119.86 321.12C125.07 315.81 131.47 313.15 139.04 313.15C146.5 313.15 152.78 315.81 157.87 321.12C162.96 326.43 165.51 332.98 165.51 340.76C165.51 349.41 162.85 356.2 157.52 361.14C152.19 366.08 146.03 368.55 139.04 368.55Z" fill="#407BFF"/>
<path d="M55.8501 172.63C55.8501 161.2 59.3701 149.62 66.4001 137.89C73.4401 126.16 83.7001 116.45 97.1901 108.75C110.68 101.05 126.43 97.2002 144.42 97.2002C161.14 97.2002 175.91 100.42 188.71 106.85C201.51 113.29 211.4 122.04 218.38 133.11C225.36 144.18 228.85 156.21 228.85 169.2C228.85 179.43 226.86 188.39 222.88 196.09C218.9 203.79 214.17 210.44 208.69 216.03C203.21 221.62 193.38 231.04 179.19 244.27C175.27 248 172.13 251.28 169.76 254.1C167.4 256.93 165.64 259.51 164.48 261.86C163.33 264.21 162.43 266.55 161.8 268.9C161.17 271.25 160.21 275.37 158.95 281.26C156.76 293.77 149.9 300.03 138.36 300.03C132.36 300.03 127.32 297.98 123.22 293.89C119.13 289.8 117.08 283.72 117.08 275.66C117.08 265.55 118.58 256.8 121.58 249.4C124.58 242 128.56 235.51 133.52 229.91C138.48 224.32 145.17 217.67 153.59 209.97C160.97 203.23 166.31 198.15 169.59 194.72C172.88 191.29 175.64 187.47 177.89 183.26C180.14 179.05 181.26 174.48 181.26 169.55C181.26 159.93 177.83 151.81 170.97 145.19C164.11 138.58 155.26 135.26 144.42 135.26C131.73 135.26 122.39 138.6 116.39 145.28C110.39 151.96 105.32 161.79 101.17 174.78C97.2501 188.38 89.8101 195.17 78.8501 195.17C72.3901 195.17 66.9401 192.8 62.5001 188.04C58.0701 183.31 55.8501 178.17 55.8501 172.63Z" fill="#407BFF"/>
<path d="M383.05 41.5202C372.18 33.5002 356.85 35.8102 348.83 46.6802C342.64 55.0802 342.62 66.1102 347.93 74.4002L345.95 81.4802L353.67 80.6402C353.78 80.7202 353.87 80.8202 353.98 80.9002C364.85 88.9202 380.17 86.6102 388.2 75.7402C396.24 64.8702 393.93 49.5402 383.05 41.5202Z" fill="#407BFF"/>
<path opacity="0.7" d="M383.05 41.5202C372.18 33.5002 356.85 35.8102 348.83 46.6802C342.64 55.0802 342.62 66.1102 347.93 74.4002L345.95 81.4802L353.67 80.6402C353.78 80.7202 353.87 80.8202 353.98 80.9002C364.85 88.9202 380.17 86.6102 388.2 75.7402C396.24 64.8702 393.93 49.5402 383.05 41.5202Z" fill="white"/>
<path d="M385.68 39.9404C392.26 44.4204 396.31 52.3704 396.08 60.3204" stroke="#407BFF" stroke-width="0.5" stroke-miterlimit="10" stroke-linecap="round" stroke-linejoin="round"/>
<path d="M395.84 63.96C395.89 65.17 395.69 66.4 395.26 67.53" stroke="#407BFF" stroke-width="0.5" stroke-miterlimit="10" stroke-linecap="round" stroke-linejoin="round"/>
<path d="M366.93 62.4103C367.34 61.7103 367.94 60.9403 368.73 60.0903C369.31 59.4703 369.73 58.9503 370 58.5303C370.27 58.1103 370.41 57.6303 370.41 57.0903C370.41 56.3303 370.15 55.7303 369.63 55.2803C369.11 54.8403 368.42 54.6203 367.57 54.6203C366.75 54.6203 366.01 54.8203 365.37 55.2203C364.73 55.6203 364.19 56.1803 363.75 56.9003L360.57 54.7103C361.31 53.3903 362.3 52.3703 363.55 51.6503C364.8 50.9303 366.29 50.5703 368.01 50.5703C370.03 50.5703 371.64 51.0803 372.86 52.0803C374.08 53.0903 374.69 54.4903 374.69 56.2803C374.69 57.1203 374.57 57.8703 374.34 58.5003C374.1 59.1403 373.81 59.6803 373.47 60.1203C373.13 60.5603 372.69 61.0703 372.14 61.6503C371.49 62.3303 371.02 62.9003 370.72 63.3603C370.42 63.8203 370.27 64.3803 370.27 65.0403H366.3C366.32 64.0003 366.52 63.1103 366.93 62.4103ZM366.51 71.7803C366.03 71.2903 365.79 70.7003 365.79 70.0003C365.79 69.3003 366.03 68.7103 366.5 68.2403C366.97 67.7703 367.58 67.5303 368.31 67.5303C369.05 67.5303 369.65 67.7703 370.12 68.2403C370.59 68.7103 370.83 69.3003 370.83 70.0003C370.83 70.7003 370.59 71.3003 370.11 71.7803C369.63 72.2703 369.03 72.5103 368.31 72.5103C367.6 72.5103 367 72.2603 366.51 71.7803Z" fill="#407BFF"/>
<path d="M153.01 37.2801C145.86 48.7501 149.37 63.8401 160.84 70.9901C169.7 76.5101 180.69 75.6501 188.54 69.7101L195.75 71.1301L194.31 63.5001C194.38 63.3901 194.47 63.2801 194.54 63.1701C201.69 51.7001 198.18 36.6101 186.71 29.4601C175.25 22.3001 160.16 25.8101 153.01 37.2801Z" fill="#407BFF"/>
<path opacity="0.7" d="M153.01 37.2801C145.86 48.7501 149.37 63.8401 160.84 70.9901C169.7 76.5101 180.69 75.6501 188.54 69.7101L195.75 71.1301L194.31 63.5001C194.38 63.3901 194.47 63.2801 194.54 63.1701C201.69 51.7001 198.18 36.6101 186.71 29.4601C175.25 22.3001 160.16 25.8101 153.01 37.2801Z" fill="white"/>
<path d="M151.23 34.7796C155.18 27.8696 162.79 23.1996 170.73 22.8096" stroke="#407BFF" stroke-width="0.5" stroke-miterlimit="10" stroke-linecap="round" stroke-linejoin="round"/>
<path d="M174.38 22.7696C175.58 22.6196 176.82 22.7196 177.98 23.0696" stroke="#407BFF" stroke-width="0.5" stroke-miterlimit="10" stroke-linecap="round" stroke-linejoin="round"/>
<path d="M173.07 51.0793C173.48 50.3793 174.08 49.6093 174.87 48.7593C175.45 48.1393 175.87 47.6193 176.14 47.1993C176.41 46.7793 176.55 46.2993 176.55 45.7593C176.55 44.9993 176.29 44.3993 175.77 43.9493C175.25 43.5093 174.56 43.2893 173.71 43.2893C172.89 43.2893 172.15 43.4893 171.51 43.8893C170.87 44.2893 170.33 44.8493 169.89 45.5693L166.71 43.3793C167.45 42.0593 168.44 41.0393 169.69 40.3193C170.94 39.5993 172.43 39.2393 174.15 39.2393C176.17 39.2393 177.78 39.7493 179 40.7493C180.22 41.7593 180.83 43.1593 180.83 44.9493C180.83 45.7893 180.71 46.5393 180.48 47.1693C180.24 47.8093 179.95 48.3493 179.61 48.7893C179.27 49.2293 178.83 49.7393 178.28 50.3193C177.63 50.9993 177.16 51.5693 176.86 52.0293C176.56 52.4893 176.41 53.0493 176.41 53.7093H172.44C172.46 52.6693 172.66 51.7793 173.07 51.0793ZM172.65 60.4493C172.17 59.9593 171.93 59.3693 171.93 58.6693C171.93 57.9693 172.17 57.3793 172.64 56.9093C173.11 56.4393 173.72 56.1993 174.45 56.1993C175.19 56.1993 175.79 56.4393 176.26 56.9093C176.73 57.3793 176.97 57.9693 176.97 58.6693C176.97 59.3693 176.73 59.9693 176.25 60.4493C175.77 60.9393 175.17 61.1793 174.45 61.1793C173.73 61.1793 173.13 60.9293 172.65 60.4493Z" fill="#407BFF"/>
<path d="M401.13 379.47C401.11 378.91 399.24 323.63 390.25 314.89C381.5 306.39 371.47 314.57 371.04 314.93L370.14 313.85C370.25 313.75 381.58 304.51 391.23 313.89C400.63 323.03 402.46 377.14 402.54 379.44L401.13 379.47Z" fill="#263238"/>
<path d="M401.91 390.339C401.85 389.679 395.76 323.969 419.76 296.439L420.82 297.359C397.22 324.439 403.25 389.549 403.31 390.199L401.91 390.339Z" fill="#263238"/>
<path d="M401.02 383.39L399.62 383.3C399.67 382.56 404.32 308.6 386.72 292.41L387.67 291.37C405.76 308.01 401.22 380.32 401.02 383.39Z" fill="#263238"/>
<path d="M403.309 383.34L401.899 383.33C401.919 381.29 402.479 333.38 416.089 325.58C419.119 323.84 422.079 323.56 424.899 324.72C433.129 328.12 437.209 342.77 437.379 343.39L436.019 343.76C435.979 343.61 431.949 329.16 424.359 326.02C421.969 325.03 419.419 325.29 416.789 326.8C403.879 334.2 403.309 382.85 403.309 383.34Z" fill="#263238"/>
<path d="M398.01 383.38L396.61 383.3C396.63 382.92 398.66 345.44 388.55 332.23C386.1 329.03 383.44 327.5 380.63 327.7C374 328.16 368.44 337.86 368.39 337.96L367.16 337.27C367.4 336.84 373.14 326.81 380.53 326.3C383.83 326.07 386.91 327.78 389.67 331.38C400.09 344.99 398.1 381.82 398.01 383.38Z" fill="#263238"/>
<path d="M400.23 388.48C399.95 384.84 393.62 299.25 404.77 284.17L405.9 285.01C395.06 299.68 401.57 387.49 401.63 388.38L400.23 388.48Z" fill="#263238"/>
<path d="M429.95 329.45C429.95 329.45 422.83 332.08 425.25 337.74C432.06 353.69 448.28 355.38 448.28 355.38C448.28 355.38 455.89 343.33 449.65 333.96C441.05 321.06 430.13 325.28 429.95 329.45Z" fill="#407BFF"/>
<path d="M398.85 322.31C398.85 322.31 405.97 322.01 406.38 328.15C406.78 334.29 390.95 351.28 390.95 351.28C390.95 351.28 379.65 347.19 382.08 331.87C384.5 316.55 397.08 318.54 398.85 322.31Z" fill="#407BFF"/>
<path d="M402.3 286.53C402.3 286.53 399.31 286.16 398.18 283.47C394.82 275.44 406.36 266.78 421.78 271.35C421.78 271.35 422.19 284.92 413.89 290.27C405.6 295.63 402.3 286.53 402.3 286.53Z" fill="#407BFF"/>
<path d="M375.88 328.62C375.88 328.62 378.36 325.22 374.61 324.88C370.86 324.55 354.62 331.82 358.89 348.48C358.89 348.48 379.78 341.67 380.5 334.69C381.22 327.72 375.88 328.62 375.88 328.62Z" fill="#407BFF"/>
<path d="M420.41 292.49C420.41 292.49 421.35 289.4 424.89 288.11C428.43 286.82 441.57 287.63 441.75 304.82C441.75 304.82 421.53 308.18 419.03 301.63C416.52 295.08 420.41 292.49 420.41 292.49Z" fill="#407BFF"/>
<path d="M409.49 306.78C409.49 306.78 410.85 304.42 413.45 305.68C416.05 306.94 423.7 314.82 416.4 324.33C416.4 324.33 402.83 316.17 403.94 310.45C404.97 305.18 409.49 306.78 409.49 306.78Z" fill="#407BFF"/>
<path d="M376.25 310.931C376.25 310.931 378.21 308.361 375.34 308.041C372.47 307.721 359.61 311.151 362.6 323.991C362.6 323.991 378.27 322.811 378.94 317.481C379.62 312.151 376.25 310.931 376.25 310.931Z" fill="#407BFF"/>
<path d="M421.05 417.691H382.76L378.62 378.061H425.18L421.05 417.691Z" fill="#263238"/>
<path d="M431.62 372.63H372.18V383.49H431.62V372.63Z" fill="#263238"/>
<path opacity="0.3" d="M389.55 345.621C388.38 337.271 392.6 327.971 398.85 322.311" stroke="black" stroke-width="0.5" stroke-miterlimit="10" stroke-linecap="round" stroke-linejoin="round"/>
<path opacity="0.3" d="M409.49 307.25C412.73 310.47 414.98 314.67 415.88 319.14" stroke="black" stroke-width="0.5" stroke-miterlimit="10" stroke-linecap="round" stroke-linejoin="round"/>
<path opacity="0.3" d="M429.95 329.45C436.41 332.32 442.49 338.39 445.59 344.75" stroke="black" stroke-width="0.5" stroke-miterlimit="10" stroke-linecap="round" stroke-linejoin="round"/>
<path opacity="0.3" d="M420.41 292.49C423.76 291.53 426.78 292.56 430.03 293.8C433.28 295.04 436.11 297.36 437.97 300.3" stroke="black" stroke-width="0.5" stroke-miterlimit="10" stroke-linecap="round" stroke-linejoin="round"/>
<path d="M392.05 295.391C392.05 295.391 396.79 295.96 397.07 293.05C397.35 290.14 381.39 278.841 368.3 288.191C368.3 288.191 372.33 301.151 381.92 303.511C391.51 305.871 392.05 295.391 392.05 295.391Z" fill="#407BFF"/>
<path opacity="0.3" d="M391.9 295.63C386.91 288.93 374.67 286.75 370.5 288.26" stroke="black" stroke-width="0.5" stroke-miterlimit="10" stroke-linecap="round" stroke-linejoin="round"/>
<path opacity="0.3" d="M376.4 311.16C372.33 312.67 367.98 315.28 365.72 318.99" stroke="black" stroke-width="0.5" stroke-miterlimit="10" stroke-linecap="round" stroke-linejoin="round"/>
<path opacity="0.3" d="M361.12 342.16C364.3 336.06 369.65 331.11 375.98 328.42" stroke="black" stroke-width="0.5" stroke-miterlimit="10" stroke-linecap="round" stroke-linejoin="round"/>
<path opacity="0.3" d="M402.93 286.21C405.47 280.79 410.35 276.51 416.05 274.7" stroke="black" stroke-width="0.5" stroke-miterlimit="10" stroke-linecap="round" stroke-linejoin="round"/>
<path opacity="0.3" d="M379.19 383.49L379.93 390.6H423.87L424.62 383.48L379.19 383.49Z" fill="black"/>
<path d="M251.36 380.18L255.26 408.78L264.58 409.25L267.6 381.68L251.36 380.18Z" fill="#263238"/>
<path d="M272.52 422.06H251.67C251.67 422.06 251.22 421.18 251.73 418.85C251.81 418.49 251.91 418.09 252.05 417.65C252.06 417.63 252.06 417.61 252.07 417.58C252.26 416.94 252.49 416.14 252.73 415.28C253.68 411.79 254.81 407.23 254.81 407.23C254.81 407.23 258.28 399.8 262.34 401.66C265.9 403.29 265.06 407.94 265.06 407.94C265.06 407.94 265.41 410.67 268.11 413.08C269.78 414.57 271.44 415.72 272.24 417.57C272.39 417.92 272.51 418.28 272.59 418.68C272.6 418.73 272.61 418.78 272.62 418.83C272.77 419.75 272.76 420.79 272.52 422.06Z" fill="#263238"/>
<path opacity="0.3" d="M251.73 418.85C251.21 421.18 251.67 422.06 251.67 422.06H272.52C272.76 420.79 272.77 419.75 272.6 418.85H251.73Z" fill="white"/>
<path d="M264.21 409.119C263.04 408.209 261.5 408.319 260.44 409.349C260.16 409.629 259.72 409.189 260.01 408.909C261.33 407.629 263.21 407.549 264.65 408.679C264.96 408.929 264.52 409.359 264.21 409.119Z" fill="#407BFF"/>
<path d="M264.8 411.07C263.63 410.16 262.09 410.27 261.03 411.3C260.75 411.58 260.31 411.14 260.59 410.87C261.91 409.59 263.79 409.51 265.23 410.64C265.55 410.88 265.11 411.31 264.8 411.07Z" fill="#407BFF"/>
<path d="M265.39 412.859C264.22 411.949 262.68 412.059 261.62 413.089C261.34 413.369 260.9 412.929 261.19 412.649C262.51 411.369 264.39 411.289 265.83 412.419C266.14 412.669 265.7 413.099 265.39 412.859Z" fill="#407BFF"/>
<path d="M212.23 378.39L208.33 406.99L199.01 407.46L195.99 379.89L212.23 378.39Z" fill="#263238"/>
<path d="M191.07 420.269H211.92C211.92 420.269 212.37 419.389 211.86 417.059C211.78 416.699 211.68 416.299 211.54 415.859C211.53 415.839 211.53 415.819 211.52 415.789C211.33 415.149 211.1 414.349 210.86 413.489C209.91 409.999 208.78 405.439 208.78 405.439C208.78 405.439 205.31 398.009 201.25 399.869C197.69 401.499 198.53 406.149 198.53 406.149C198.53 406.149 198.18 408.879 195.48 411.289C193.81 412.779 192.15 413.929 191.35 415.779C191.2 416.129 191.08 416.489 191 416.889C190.99 416.939 190.98 416.989 190.97 417.039C190.82 417.959 190.83 418.999 191.07 420.269Z" fill="#263238"/>
<path opacity="0.3" d="M211.86 417.06C212.38 419.39 211.92 420.27 211.92 420.27H191.07C190.83 419 190.82 417.96 190.99 417.06H211.86Z" fill="white"/>
<path d="M199.38 407.329C200.55 406.419 202.09 406.529 203.15 407.559C203.43 407.839 203.87 407.399 203.59 407.119C202.27 405.839 200.39 405.759 198.95 406.889C198.63 407.139 199.07 407.569 199.38 407.329Z" fill="#407BFF"/>
<path d="M198.79 409.279C199.96 408.369 201.5 408.479 202.56 409.509C202.84 409.789 203.28 409.349 203 409.069C201.68 407.789 199.8 407.709 198.36 408.839C198.05 409.089 198.48 409.519 198.79 409.279Z" fill="#407BFF"/>
<path d="M198.2 411.069C199.37 410.159 200.91 410.269 201.97 411.299C202.25 411.579 202.69 411.139 202.4 410.859C201.08 409.579 199.2 409.499 197.76 410.629C197.45 410.879 197.89 411.309 198.2 411.069Z" fill="#407BFF"/>
<path d="M271.78 192.41L228.42 195L201.89 190.42C201.89 190.42 200.09 220.71 197.82 292.7C197.33 308.4 193.18 401.71 193.18 401.71L216.5 404.09C216.5 404.09 228.08 307.31 229.85 298.86C230.91 293.78 234.89 255.61 238.05 237.36C239.58 252.58 240.84 289.3 242 299.18C242 299.18 247.79 378.6 248.61 401.13L270.35 400.05C273.03 369.12 273.94 256.45 273.94 256.45C275.44 232.84 271.78 192.41 271.78 192.41Z" fill="#263238"/>
<path opacity="0.4" d="M271.78 192.41L228.42 195L201.89 190.42C201.89 190.42 200.09 220.71 197.82 292.7C197.33 308.4 193.18 401.71 193.18 401.71L216.5 404.09C216.5 404.09 228.08 307.31 229.85 298.86C230.91 293.78 234.89 255.61 238.05 237.36C239.58 252.58 240.84 289.3 242 299.18C242 299.18 247.79 378.6 248.61 401.13L270.35 400.05C273.03 369.12 273.94 256.45 273.94 256.45C275.44 232.84 271.78 192.41 271.78 192.41Z" fill="white"/>
<path d="M219.24 90.4699C223.27 90.2199 233.62 88.0999 248.5 89.6799C256.24 90.4999 262.57 90.3199 270.51 93.9699L274.44 189.33C274.5 197.21 273.23 198.31 273.23 198.31C273.23 198.31 273.46 202.78 273.47 202.92C247.32 213.03 217.21 212.37 200.55 201.99C200.94 202.06 200.55 198.76 200.55 198.76C200.55 198.76 198.04 196.22 198.9 188.12C201.77 161.1 208.05 117.55 212.51 93.2399C212.64 92.6499 218.63 90.5099 219.24 90.4699Z" fill="#407BFF"/>
<path opacity="0.3" d="M219.24 90.4699C223.27 90.2199 233.62 88.0999 248.5 89.6799C256.24 90.4999 262.57 90.3199 270.51 93.9699L274.44 189.33C274.5 197.21 273.23 198.31 273.23 198.31C273.23 198.31 273.46 202.78 273.47 202.92C247.32 213.03 217.21 212.37 200.55 201.99C200.94 202.06 200.55 198.76 200.55 198.76C200.55 198.76 198.04 196.22 198.9 188.12C201.77 161.1 208.05 117.55 212.51 93.2399C212.64 92.6499 218.63 90.5099 219.24 90.4699Z" fill="black"/>
<path opacity="0.3" d="M267.66 99.2002C266.63 99.2002 262.43 108.94 259.75 120.75C257.07 132.56 250.16 154.78 250.16 154.78L208.96 161.28L206.59 180.92C206.59 180.92 261.57 185.96 267.97 179.07C274.37 172.18 272.62 170.86 274.94 158.61C277.01 147.69 278.11 120.27 277.78 112.99C277.32 102.6 269.08 99.2302 267.66 99.2002Z" fill="black"/>
<path d="M190.48 161.279C190.48 161.279 185.19 169.279 188.72 171.309C192.24 173.339 205.45 176.869 205.45 176.869V161.899L190.48 161.279Z" fill="#EBB373"/>
<path d="M270.17 93.8193C269.14 93.8193 263.43 104.419 260.75 116.229C258.07 128.039 252.5 156.179 252.5 156.179L205.46 161.889V178.819C205.46 178.819 262.19 182.759 268.59 175.869C274.99 168.979 275.14 165.479 277.46 153.239C279.53 142.319 280.63 114.899 280.3 107.619C279.83 97.2293 271.59 93.8493 270.17 93.8193Z" fill="#407BFF"/>
<path opacity="0.3" d="M270.17 93.8193C269.14 93.8193 263.43 104.419 260.75 116.229C258.07 128.039 252.5 156.179 252.5 156.179L205.46 161.889V178.819C205.46 178.819 262.19 182.759 268.59 175.869C274.99 168.979 275.14 165.479 277.46 153.239C279.53 142.319 280.63 114.899 280.3 107.619C279.83 97.2293 271.59 93.8493 270.17 93.8193Z" fill="black"/>
<g opacity="0.3">
<path d="M260.96 106.979C262.54 101.419 267.7 97.159 273.47 96.689C273.95 96.649 273.95 95.899 273.47 95.939C267.36 96.439 261.92 100.879 260.24 106.779C260.1 107.239 260.82 107.439 260.96 106.979Z" fill="black"/>
</g>
<path d="M222.43 87.6497C222.43 87.6497 223.18 89.9397 222.64 90.6797C222.1 91.4197 221.44 91.5897 221.44 91.5897C221.44 91.5897 222.59 93.2997 222.14 94.3897C222.14 94.3897 223.87 96.3297 222.84 97.6497C221.81 98.9597 220.67 98.2197 220.31 97.6497C219.95 97.0797 218.39 101.11 216.42 100.24C214.44 99.3597 216.36 97.0197 216.96 96.1697L215.04 96.4597C215.04 96.4597 212.23 102.74 210.13 103.03C208.03 103.32 202.29 102.72 201.78 100.25C201.78 100.25 210.74 83.8697 211.36 83.5097C211.82 83.2497 217.13 82.0897 219.9 81.4897C220.93 81.2697 221.99 81.7097 222.52 82.5797C223.4 84.0197 224.47 86.1097 223.68 86.7097C222.43 87.6497 222.43 87.6497 222.43 87.6497Z" fill="#EBB373"/>
<path opacity="0.3" d="M201.1 101.59C200.61 102.28 186.02 147.47 188.45 155.81C190.88 164.15 194.52 167.16 200.59 166C206.66 164.84 209.82 162.99 210.54 155.35C211.27 147.71 216.42 105.29 212.86 103.08C211.15 102.02 201.1 101.59 201.1 101.59Z" fill="black"/>
<path d="M198.73 99.8193C198.24 100.509 183.65 145.699 186.07 154.039C188.5 162.379 192.14 165.389 198.21 164.229C204.28 163.069 207.44 161.219 208.16 153.579C208.89 145.939 215.07 103.429 213.21 102.659C211.36 101.899 198.73 99.8193 198.73 99.8193Z" fill="#407BFF"/>
<path opacity="0.3" d="M198.73 99.8193C198.24 100.509 183.65 145.699 186.07 154.039C188.5 162.379 192.14 165.389 198.21 164.229C204.28 163.069 207.44 161.219 208.16 153.579C208.89 145.939 215.07 103.429 213.21 102.659C211.36 101.899 198.73 99.8193 198.73 99.8193Z" fill="black"/>
<path d="M248.95 92.9594C248.95 92.9594 242.16 98.7194 240.39 99.1594C238.01 99.7494 230.62 91.7894 230.62 91.7894C233.55 87.9794 232.13 85.0594 231.47 80.6794L250.15 62.6394C250.15 62.6394 248.2 62.5894 248.19 62.6394C247.71 64.2094 247.6 73.7094 247.94 85.7294L248.95 92.9594Z" fill="#EBB373"/>
<g opacity="0.2">
<path d="M240.96 79.7989C239.39 82.8589 235.93 85.2289 232.45 86.1789C232.42 85.8589 232.3 85.3889 232.26 85.0689C232.2 84.5689 232.01 83.8189 231.91 83.2989C231.78 82.6589 231.62 81.9789 231.43 81.3289C231.34 81.0789 231.24 81.1389 231.15 80.8889L230.96 80.3689L240.66 74.1289C241.66 74.5489 242.22 77.3089 240.96 79.7989Z" fill="black"/>
</g>
<path d="M248.82 50.2091C248.52 38.1991 236.02 30.1891 224.9 35.8691C213.62 41.6391 213.52 59.5091 217.02 70.0291C220.9 81.7091 236.12 85.9091 244.4 75.8991C249.9 69.2391 249.12 62.2191 248.82 50.2091Z" fill="#EBB373"/>
<path d="M232.06 57.5494C232.25 58.7594 231.76 59.8394 230.97 59.9594C230.18 60.0794 229.38 59.1894 229.18 57.9794C228.99 56.7694 229.48 55.6894 230.27 55.5694C231.07 55.4494 231.87 56.3394 232.06 57.5494Z" fill="#263238"/>
<path d="M219.73 58.7897C219.92 59.9997 219.43 61.0797 218.64 61.1997C217.85 61.3197 217.05 60.4297 216.85 59.2197C216.66 58.0097 217.15 56.9297 217.94 56.8097C218.74 56.6897 219.54 57.5797 219.73 58.7897Z" fill="#263238"/>
<path d="M224.35 56.6494C224.35 56.6494 221.46 63.2794 220.62 65.9294C222.55 67.1894 225.34 66.0294 225.34 66.0294L224.35 56.6494Z" fill="#C15854"/>
<path d="M233.34 51.1798C233.18 51.2998 232.96 51.3398 232.76 51.2598C230.43 50.3198 228.77 51.3798 228.6 51.4998C228.34 51.6798 227.98 51.6198 227.8 51.3598C227.62 51.0998 227.68 50.7398 227.94 50.5598C228.03 50.4998 230.23 49.0098 233.19 50.1998C233.49 50.3198 233.63 50.6498 233.51 50.9398C233.47 51.0498 233.41 51.1198 233.34 51.1798Z" fill="#263238"/>
<path d="M216.09 55.9599C215.99 55.9099 215.91 55.8299 215.85 55.7299C215.69 55.4499 215.79 55.0999 216.06 54.9399C218.8 53.3599 221.15 54.5599 221.27 54.5999C221.55 54.7499 221.66 55.0899 221.52 55.3799C221.38 55.6599 221.04 55.7699 220.76 55.6299C220.66 55.5799 218.84 54.6699 216.64 55.9399C216.45 56.0399 216.25 56.0399 216.09 55.9599Z" fill="#263238"/>
<path d="M245.27 57.4698C245.27 57.4698 243.46 37.1298 237.11 36.3598C230.75 35.5898 229.78 41.5098 225.62 41.6698C221.46 41.8298 221.52 38.7498 221.52 38.7498C219.1 40.4798 217.46 45.4398 215.77 49.2698C215.77 49.2698 216.63 38.0998 221.05 34.6898C229.64 28.0598 241.71 29.2698 247.18 34.3198C252.55 39.2798 252.61 50.0298 252.61 50.0298C252.07 58.2898 251.46 62.9198 248.26 68.2198L245.27 57.4698Z" fill="#263238"/>
<path d="M254.06 57.6893C253.58 61.0093 251.6 63.7793 249.35 65.3693C245.97 67.7693 243.97 63.9793 243.71 60.0493C243.47 56.5193 243.82 52.1193 247.79 51.2693C251.7 50.4493 254.61 53.8993 254.06 57.6893Z" fill="#EBB373"/>
<path opacity="0.2" d="M250.72 54.7391C250.11 54.0791 249.06 53.9691 248.23 54.3191C247.4 54.6691 246.79 55.3891 246.38 56.1891C245.89 57.1391 245.65 58.2291 245.69 59.2991" stroke="black" stroke-width="0.5" stroke-miterlimit="10" stroke-linecap="round" stroke-linejoin="round"/>
<path d="M242.27 40.7796C241.36 38.0096 239.53 35.4096 236.86 34.2496C235.6 33.6996 234.21 33.4896 232.84 33.3796C229.19 33.0696 231.61 31.8496 227.96 32.1496L224.55 32.9996C221.96 34.0296 217.18 36.7596 214.97 38.4696C211.47 41.1796 207.46 43.2396 203.21 44.4896C202.49 44.6996 201.63 45.0196 201.51 45.7596C201.38 46.5096 202.1 47.1096 202.76 47.4796C207.03 49.8296 212.58 49.6396 216.68 46.9896C215.75 49.7096 210.44 51.0296 212.4 51.2396C218.39 52.5396 225.03 50.2596 228.95 45.5496C228.94 46.3396 228.94 47.1696 229.26 47.8896C229.57 48.6196 230.29 49.2396 231.08 49.1796C231.72 49.1296 232.25 48.6696 232.66 48.1696C234.1 46.4296 234.62 44.1296 235.11 41.9196C237.67 44.6296 241.5 54.7696 244.45 57.0496C249.51 50.2996 243.18 43.5496 242.27 40.7796Z" fill="#263238"/>
<path d="M227.53 70.0891C228.79 69.3791 230.38 69.2891 231.7 69.8791C231.88 69.9591 232.1 69.9291 232.21 69.7491C232.3 69.5891 232.26 69.3191 232.08 69.2391C230.5 68.5291 228.66 68.5891 227.15 69.4491C226.73 69.6791 227.1 70.3291 227.53 70.0891Z" fill="#263238"/>
<path d="M242.34 31.4495C242.05 30.1995 241.55 28.9895 240.88 27.8995C240.57 27.3995 239.86 27.1595 239.34 27.4995C238.84 27.8195 238.6 28.4995 238.94 29.0395C239.24 29.5195 239.5 30.0195 239.72 30.5395C239.68 30.4495 239.64 30.3595 239.61 30.2695C239.85 30.8495 240.04 31.4395 240.18 32.0495C240.31 32.6195 241 33.0195 241.56 32.8395C242.15 32.6395 242.48 32.0695 242.34 31.4495Z" fill="#263238"/>
<path d="M243.48 34.0392C243.48 33.9192 243.48 33.8092 243.49 33.6892C243.49 33.6292 243.48 33.3792 243.52 33.3392C243.5 33.3592 243.48 33.5792 243.51 33.4092C243.52 33.3592 243.53 33.3092 243.54 33.2592C243.56 33.1492 243.59 33.0292 243.61 32.9192C243.66 32.6892 243.73 32.4692 243.81 32.2492C243.83 32.1992 243.85 32.1492 243.86 32.1092C243.92 31.9492 243.92 32.0492 243.85 32.1292C243.92 32.0592 243.95 31.8992 244 31.8192C244.1 31.6192 244.21 31.4292 244.33 31.2492C244.39 31.1492 244.46 31.0592 244.53 30.9592C244.55 30.9292 244.66 30.7892 244.56 30.9192C244.45 31.0592 244.59 30.8792 244.62 30.8492C244.76 30.6792 244.91 30.5192 245.07 30.3692C245.15 30.2892 245.24 30.2092 245.33 30.1392C245.38 30.0992 245.43 30.0592 245.48 30.0192C245.59 29.9192 245.26 30.1792 245.47 30.0292C245.71 29.8492 245.9 29.6592 245.99 29.3592C246.06 29.0892 246.03 28.7292 245.88 28.4892C245.58 28.0192 244.85 27.7092 244.34 28.0892C242.45 29.4892 241.27 31.6692 241.25 34.0492C241.24 34.6392 241.77 35.1992 242.37 35.1692C242.97 35.1392 243.48 34.6692 243.48 34.0392Z" fill="#263238"/>
<path d="M331.19 114.2C331.19 114.2 337.36 114.74 341.46 121.82C345.56 128.89 349.58 134.68 349.58 134.68L336.32 143.52L331.19 114.2Z" fill="#263238"/>
<path opacity="0.7" d="M331.19 114.2C331.19 114.2 337.36 114.74 341.46 121.82C345.56 128.89 349.58 134.68 349.58 134.68L336.32 143.52L331.19 114.2Z" fill="white"/>
<path d="M338.89 175.24C337.41 174.25 335.52 174.18 333.75 174.16C320.45 174.03 307.13 175.26 294.07 177.83L291.78 178.96C289.97 177.91 287.56 178.62 286.03 180.05C284.51 181.49 283.68 183.49 282.9 185.42C276.13 202.18 269.69 219.12 265.12 236.61C264.06 240.66 263.15 245.17 265.14 248.85C267.46 253.14 272.8 254.66 277.61 255.51C293.31 258.3 309.35 258.47 325.3 258.51C329.18 258.52 333.32 258.44 336.52 256.24C340.99 253.16 342.05 247.11 342.57 241.71C344.47 221.97 344.3 202.02 341.96 182.33C341.65 179.69 341.11 176.72 338.89 175.24Z" fill="#263238"/>
<path d="M323.84 409.82L334.87 410.9L343.02 382.97L326.24 381.14L323.84 409.82Z" fill="#B97964"/>
<path d="M336.47 406.029H332.53C331.64 406.029 330.81 406.479 330.29 407.199C328.02 410.299 326.31 409.129 323.84 406.209C322.27 406.029 321.85 407.829 321.72 408.309L318.78 419.019C318.52 419.909 319.04 420.849 319.94 421.099C320.1 421.149 320.26 421.169 320.43 421.159C325.21 421.159 327.48 421.159 333.43 421.159H351.64C356.6 421.159 357.63 416.159 355.59 415.699C346.4 413.669 339.89 410.959 337.04 408.289C336.5 407.829 337.04 407.479 336.47 406.029Z" fill="#263238"/>
<path d="M345.02 409.08C345.43 408.78 345.68 408.3 345.69 407.79C345.72 407.52 345.6 407.25 345.37 407.1C344.14 406.23 339.21 408.53 338.66 408.8C338.6 408.82 338.55 408.87 338.53 408.93C338.49 409.04 338.55 409.17 338.66 409.21C339.87 409.5 341.11 409.66 342.35 409.69C343.27 409.77 344.21 409.56 345.02 409.08ZM345.05 407.47C345.15 407.53 345.2 407.65 345.18 407.77C345.16 408.14 344.98 408.48 344.69 408.71C343.57 409.55 340.87 409.19 339.42 408.92C341.47 408.01 344.37 406.99 345.05 407.47Z" fill="#407BFF"/>
<path d="M338.82 409.26C340.3 408.64 343.4 406.21 343.23 404.93C343.2 404.66 343.01 404.34 342.34 404.25C339.64 403.94 338.48 408.79 338.48 408.99C338.45 409.07 338.48 409.16 338.54 409.22C338.59 409.23 338.64 409.23 338.69 409.22L338.82 409.26ZM342.25 404.64C342.75 404.69 342.75 404.87 342.75 404.94C342.89 405.72 340.64 407.74 339.03 408.59C339.36 407.46 340.35 404.63 342.06 404.63L342.25 404.64Z" fill="#407BFF"/>
<path d="M339.2 409.069C337.84 409.259 336.58 410.069 335.85 411.219" stroke="#407BFF" stroke-width="0.5" stroke-miterlimit="10" stroke-linecap="round" stroke-linejoin="round"/>
<path d="M341.65 410.909C340.29 411.099 339.03 411.909 338.3 413.059" stroke="#407BFF" stroke-width="0.5" stroke-miterlimit="10" stroke-linecap="round" stroke-linejoin="round"/>
<path d="M344.7 412.46C343.34 412.65 342.08 413.46 341.35 414.61" stroke="#407BFF" stroke-width="0.5" stroke-miterlimit="10" stroke-linecap="round" stroke-linejoin="round"/>
<path opacity="0.3" d="M338.71 397.73L337.71 401.16L324.73 399.16L324.97 396.35L338.71 397.73Z" fill="black"/>
<path d="M285.6 410.709L296.64 411.789L304.79 383.849L288.01 382.029L285.6 410.709Z" fill="#B97964"/>
<path d="M298.24 406.92H294.3C293.41 406.92 292.58 407.37 292.06 408.09C289.79 411.19 288.08 410.02 285.61 407.1C284.04 406.92 283.62 408.72 283.49 409.2L280.55 419.91C280.29 420.8 280.81 421.74 281.71 421.99C281.87 422.04 282.03 422.06 282.2 422.05C286.98 422.05 289.25 422.05 295.2 422.05H313.41C318.37 422.05 319.4 417.05 317.36 416.58C308.17 414.55 301.66 411.84 298.81 409.17C298.27 408.72 298.81 408.37 298.24 406.92Z" fill="#263238"/>
<path d="M306.78 409.96C307.19 409.66 307.44 409.18 307.45 408.67C307.48 408.4 307.36 408.13 307.13 407.98C305.9 407.11 300.97 409.41 300.42 409.68C300.36 409.7 300.31 409.75 300.29 409.81C300.25 409.92 300.31 410.05 300.42 410.09C301.63 410.38 302.87 410.54 304.11 410.57C305.04 410.65 305.98 410.44 306.78 409.96ZM306.82 408.35C306.92 408.41 306.97 408.53 306.95 408.65C306.93 409.02 306.75 409.36 306.46 409.59C305.34 410.43 302.64 410.07 301.19 409.8C303.23 408.89 306.14 407.88 306.82 408.35Z" fill="#407BFF"/>
<path d="M300.59 410.139C302.07 409.519 305.17 407.089 305 405.809C304.97 405.539 304.78 405.219 304.11 405.129C301.41 404.819 300.25 409.669 300.25 409.869C300.22 409.949 300.25 410.039 300.31 410.099C300.36 410.109 300.41 410.109 300.46 410.099L300.59 410.139ZM304.02 405.519C304.52 405.569 304.52 405.749 304.52 405.819C304.66 406.599 302.41 408.619 300.8 409.469C301.13 408.339 302.12 405.509 303.83 405.509L304.02 405.519Z" fill="#407BFF"/>
<path d="M300.97 409.959C299.61 410.149 298.35 410.959 297.62 412.109" stroke="#407BFF" stroke-width="0.5" stroke-miterlimit="10" stroke-linecap="round" stroke-linejoin="round"/>
<path d="M303.42 411.8C302.06 411.99 300.8 412.8 300.07 413.95" stroke="#407BFF" stroke-width="0.5" stroke-miterlimit="10" stroke-linecap="round" stroke-linejoin="round"/>
<path d="M306.46 413.35C305.1 413.54 303.84 414.35 303.11 415.5" stroke="#407BFF" stroke-width="0.5" stroke-miterlimit="10" stroke-linecap="round" stroke-linejoin="round"/>
<path opacity="0.3" d="M286.5 400.049L286.73 397.239L300.48 398.619L299.48 402.039" fill="black"/>
<path opacity="0.2" d="M344.85 197.789C344.85 197.789 336.75 206.34 320.87 206.49C304.99 206.64 287.18 197.389 287.18 197.389L289.17 193.979L334.9 198.96L343.65 193.979L344.85 197.789Z" fill="black"/>
<path d="M346.24 202.689C346.24 202.689 355.89 242.219 360.25 277.399C361.58 288.119 361.83 302.459 359.48 313.009L341.85 400.629L319.67 398.409C323.16 360.619 328.01 314.009 329.4 294.179L303.9 214.839L346.24 202.689Z" fill="#407BFF"/>
<path opacity="0.2" d="M317.59 257.49C317.52 257.86 328.57 212.66 328.57 212.66C328.57 212.66 331.54 249.55 320.43 267.16L317.59 257.49Z" fill="black"/>
<path d="M285.25 305.22C285.46 302.99 285.67 298.48 285.87 292.55C285.84 292.55 285.81 292.54 285.78 292.54C285.47 284.77 282.05 248.99 281.46 225.96C281.4 211.25 283.79 200.97 286.88 195.68C287.04 195.41 287.19 195.16 287.32 194.94C287.84 194.09 288.15 193.61 288.15 193.61C288.88 193.69 289.61 193.76 290.33 193.82C290.6 193.84 290.87 193.86 291.13 193.88C318.14 195.88 337.95 185.22 337.95 185.22C341.16 190.87 342.72 189.7 346.25 202.68C343.9 206.06 336.7 225.92 323.21 230.36L321.64 248.73C321.04 260.07 319.82 271.28 318.85 281.36L317.91 292.38C317.86 293.1 317.81 293.82 317.77 294.52C317.39 300.83 302.02 403.79 302.02 403.79L281.47 403.49C281.45 403.49 282.42 335.45 285.25 305.22Z" fill="#407BFF"/>
<path opacity="0.2" d="M343.01 394.93L341.86 400.63L319.68 398.41L320.26 392.22L343.01 394.93Z" fill="black"/>
<path opacity="0.2" d="M302.01 403.79L302.87 397.98L281.45 397.72V403.49L302.01 403.79Z" fill="black"/>
<path d="M282.74 143.6L275.84 120.08C280.2 113.57 301.79 108.56 301.79 108.56L316.01 109.34C316.01 109.34 321.48 110.56 326.16 112.09C332.41 114.13 335.79 115.77 337.28 119.23C337.28 119.23 339.89 126.91 338.32 142.74C337.89 147.09 336.9 170.06 338.12 177.54L346.96 194.83C320.97 215.07 287.7 194.84 287.7 194.84C288.87 191.27 291.44 183.35 291.96 179.86C291.58 175.4 290.33 172.48 288.44 164.68C288.08 163.17 283.37 145.06 282.74 143.6Z" fill="#263238"/>
<path opacity="0.7" d="M282.74 143.6L275.84 120.08C280.2 113.57 301.79 108.56 301.79 108.56L316.01 109.34C316.01 109.34 321.48 110.56 326.16 112.09C332.41 114.13 335.79 115.77 337.28 119.23C337.28 119.23 339.89 126.91 338.32 142.74C337.89 147.09 336.9 170.06 338.12 177.54L346.96 194.83C320.97 215.07 287.7 194.84 287.7 194.84C288.87 191.27 291.44 183.35 291.96 179.86C291.58 175.4 290.33 172.48 288.44 164.68C288.08 163.17 283.37 145.06 282.74 143.6Z" fill="white"/>
<path opacity="0.2" d="M285.44 152.03H286.71L290.53 140.75L288.84 166.29L285.32 152.92L285.44 152.03Z" fill="black"/>
<path d="M312.73 184.16C306.29 179.74 298.29 177.66 290.51 178.4L286.71 188.39C297.35 197.98 310.37 199.27 324.69 198.83C326.7 191.42 319.16 188.58 312.73 184.16Z" fill="#263238"/>
<path d="M342.67 177.73C341.62 175.77 339.48 174.2 337.28 174.54C335.64 174.79 334.33 176 333.2 177.22C328.7 182.04 325.24 187.81 323.11 194.05L323.95 198.83C325.43 198.22 326.91 197.61 328.39 197.01C332.59 195.29 336.92 193.48 340.05 190.2C343.18 186.91 344.81 181.73 342.67 177.73Z" fill="#263238"/>
<path d="M331.03 194.86C331.03 198.18 328.34 200.87 325.02 200.87C321.7 200.87 319.01 198.18 319.01 194.86C319.01 191.54 321.7 188.85 325.02 188.85C328.34 188.84 331.03 191.54 331.03 194.86Z" fill="#263238"/>
<path d="M327.63 218.48C327.13 211.34 326.63 204.2 326.14 197.06L323.34 198.88C314.58 211.67 310.75 227.75 312.78 243.12C316.51 243.76 320.32 244.01 324.1 243.85C323.03 241.6 321.97 239.34 320.9 237.09C324.2 235.8 326.38 232.5 327.25 229.07C328.11 225.62 327.87 222.01 327.63 218.48Z" fill="#263238"/>
<path d="M339.78 226.019C341.38 223.839 341.67 220.969 341.5 218.269C340.96 209.699 336 201.529 328.65 197.089L327.45 196.149C331.72 209.029 330.89 222.969 330.01 236.509C332.88 235.929 335.75 235.349 338.62 234.769C337.74 232.989 336.83 230.949 337.53 229.099C337.99 227.909 339.02 227.049 339.78 226.019Z" fill="#263238"/>
<path d="M317.22 67.4291C317.22 67.4291 319.58 93.5591 320.88 101.069C324.98 105.979 341.21 102.429 334.86 85.1591C331.51 76.0391 331.22 64.5191 324.89 59.8191C316 53.2291 317.22 67.4291 317.22 67.4291Z" fill="#263238"/>
<path d="M315.03 110.629C313.54 109.139 312.87 107.599 313.15 105.439C313.35 103.779 313.88 102.049 314.52 100.369L312.3 97.9591L300.75 87.1191C301.3 94.6191 302.64 106.639 296.92 110.919L315.02 125.549V110.629H315.03Z" fill="#B97964"/>
<path opacity="0.2" d="M313.09 105.94C309.96 104.23 306.49 101.2 306.76 97.5799C306.88 96.0599 307.16 94.6099 307.49 93.6699L314.04 101.72C313.57 103.07 313.39 103.91 313.09 105.94Z" fill="black"/>
<path d="M297.73 75.1693C299.19 86.5793 299.57 91.4193 305.69 97.2093C314.9 105.909 328.46 102.379 330.4 90.9493C332.15 80.6593 329.46 63.7393 318.05 59.3393C306.81 54.9993 296.26 63.7593 297.73 75.1693Z" fill="#B97964"/>
<path opacity="0.2" d="M322.75 100.96C313.72 96.8496 310.18 97.9596 310.84 100.24C311.14 101.28 315.21 101.92 315.21 101.92C315.21 101.92 316.12 102.01 316.56 102.04C316.95 102.07 317.2 102.29 317.18 102.3C316.86 102.63 322.44 101.36 322.75 100.96Z" fill="black"/>
<path opacity="0.3" d="M328.38 96.2292C328.38 96.2292 327.95 95.6692 327.21 95.9292C326.48 96.1892 324.75 97.5592 324.74 99.8892C324.74 99.8892 325.67 99.2992 326.71 98.3192C327.37 97.6992 328.38 96.2292 328.38 96.2292Z" fill="black"/>
<path d="M313.25 79.1891C313.26 80.2591 313.88 81.1791 314.63 81.2291C315.38 81.2791 315.98 80.4491 315.97 79.3791C315.96 78.3091 315.34 77.3891 314.59 77.3391C313.84 77.2891 313.24 78.1191 313.25 79.1891Z" fill="#263238"/>
<path d="M324.89 78.1894C324.84 79.2294 325.4 80.1494 326.15 80.2394C326.89 80.3394 327.54 79.5694 327.59 78.5294C327.64 77.4894 327.08 76.5694 326.33 76.4794C325.59 76.3794 324.94 77.1494 324.89 78.1894Z" fill="#263238"/>
<path d="M311.53 77.4294C311.68 77.4394 311.82 77.3894 311.93 77.2794C313.62 75.5694 315.63 76.0494 315.65 76.0494C315.95 76.1194 316.24 75.9394 316.29 75.6394C316.34 75.3394 316.14 75.0294 315.84 74.9494C315.73 74.9194 313.21 74.3194 311.12 76.4394C310.91 76.6494 310.92 77.0094 311.15 77.2394C311.26 77.3594 311.4 77.4194 311.53 77.4294Z" fill="#263238"/>
<path d="M329.55 71.8695C329.68 71.8295 329.8 71.7395 329.86 71.6095C329.99 71.3395 329.86 71.0095 329.57 70.8695C326.68 69.4795 324.43 70.6794 324.34 70.7394C324.07 70.8894 323.99 71.2195 324.16 71.4795C324.33 71.7395 324.68 71.8295 324.95 71.6895C325.04 71.6395 326.8 70.7294 329.09 71.8394C329.25 71.9094 329.41 71.9195 329.55 71.8695Z" fill="#263238"/>
<path d="M306.74 56.5195C302.81 57.1695 300.34 57.7295 297.24 59.6695C294.14 61.6095 290.83 66.3195 289.03 69.9195C286.46 75.0495 286.27 81.3395 286.15 87.3295C286.07 91.2695 286.09 95.5495 288.09 98.6695C289.44 100.76 291.52 102.01 293.67 102.59C295.81 103.17 298.03 103.13 300.23 103.06C302.04 103.01 304.25 102.62 304.92 100.6C305.98 97.4095 301.99 94.4495 302.53 91.0795" fill="#263238"/>
<path d="M294.6 84.6191C296.04 86.9191 298.29 88.3091 300.32 88.7391C303.38 89.3891 304.76 84.4591 303.62 81.4691C302.59 78.7691 299.55 77.0691 296.62 77.7691C293.74 78.4691 292.96 81.9891 294.6 84.6191Z" fill="#B97964"/>
<path d="M320.88 77.4697C320.88 77.4697 322.83 81.6897 324.94 84.2897C325.31 84.7397 325.12 85.4297 324.57 85.6497C323.18 86.2197 321.5 85.8097 321.5 85.8097L320.88 77.4697Z" fill="#A24E3F"/>
<path d="M314.36 77.2998L317.01 76.7998C317.02 76.7998 315.49 78.6898 314.36 77.2998Z" fill="#263238"/>
<path d="M326.06 76.4797L328.74 76.1396C328.74 76.1396 327.1 77.9397 326.06 76.4797Z" fill="#263238"/>
<path d="M294.64 68.9194C293.09 71.1594 296.18 77.6794 296.18 77.6794C296.18 77.6794 301.67 76.0494 301.97 84.3194C303.99 84.6594 306.27 76.9294 305.94 69.1694C305.53 64.7794 297.38 64.9594 294.64 68.9194Z" fill="#263238"/>
<path opacity="0.2" d="M298.81 80.6193C297.84 80.2493 296.83 80.8893 296.51 81.6893C296.12 82.6593 296.66 84.9093 299.63 85.6193" stroke="black" stroke-width="0.5" stroke-miterlimit="10" stroke-linecap="round" stroke-linejoin="round"/>
<path d="M327 62.5498C324.58 57.5198 314.72 52.8398 303.38 57.6998C293.13 62.0798 288.78 77.1098 296.19 77.6698C303.6 78.2298 315.52 69.2698 315.52 69.2698L327 62.5498Z" fill="#263238"/>
<path d="M341.85 152.069L353.39 152.339L355.96 158.209L350.03 165.719C350.03 165.719 348.61 165.629 349.08 163.649C349.44 162.119 350.27 160.919 350.27 160.919L342.39 163.289C340.9 163.739 339.38 162.659 339.32 161.099L338.96 152.029L341.85 152.069Z" fill="#B97964"/>
<path d="M274.35 131.01C274.35 131.01 273.93 136.68 276.26 143.84C278.59 150.99 284.37 170.08 291.22 175.34C298.07 180.6 315.43 172.74 325.85 168.19C336.17 163.69 341.67 161.53 341.85 161.5L338.96 152.04L301.11 157.56L284.87 123C284.88 122.98 273.22 122.88 274.35 131.01Z" fill="#B97964"/>
<path opacity="0.2" d="M335.16 151.31C335.16 151.31 337.86 158.35 341.25 159.52C344.64 160.69 353.25 161.02 354.01 152.91L335.16 151.31Z" fill="black"/>
<path d="M275.84 120.08C268.74 126.95 276.68 153.52 276.68 153.52L299.36 147.54C299.36 147.54 293.97 127.52 288.55 122.48C283.96 118.23 279.74 116.19 275.84 120.08Z" fill="#263238"/>
<g opacity="0.7">
<path d="M275.84 120.08C268.74 126.95 276.68 153.52 276.68 153.52L299.36 147.54C299.36 147.54 293.97 127.52 288.55 122.48C283.96 118.23 279.74 116.19 275.84 120.08Z" fill="white"/>
</g>
<path d="M319.63 89.6193C320.51 89.5893 321.39 89.6193 322.27 89.7193C322.7 89.7693 323.13 89.8293 323.56 89.9093C323.81 89.9593 324.33 89.9593 324.48 90.2093C324.73 90.6193 325.38 90.2393 325.13 89.8293C324.91 89.4793 324.59 89.3493 324.2 89.2793C323.69 89.1793 323.18 89.0893 322.67 89.0293C321.66 88.8993 320.65 88.8593 319.64 88.8893C319.15 88.8793 319.14 89.6293 319.63 89.6193Z" fill="#263238"/>
<path opacity="0.2" d="M313.09 106.54C313.09 106.56 311.9 106.93 312.18 108.22C312.47 109.51 312.92 109.67 312.92 109.67C312.92 109.67 311.61 111.08 313.09 112.63C313.09 112.63 313.92 113.49 315.54 113.26C315.54 113.26 319.02 119.09 321.84 119.31L322.7 119.47L330.79 136.43L322.22 105.93L313.09 106.54Z" fill="black"/>
<path d="M330.53 111.729C330.53 111.729 330.33 103.459 329.69 102.089C329.05 100.719 328.28 100.309 328.28 98.8094C328.28 97.2994 328.55 96.1194 327.69 96.2994C326.82 96.4794 326 98.0794 325.77 99.2594C325.54 100.449 326.04 103.589 326.04 103.589C326.04 103.589 319.52 99.6694 316.92 99.0694C314.75 98.5794 312.18 98.2094 311.35 99.2094C311 99.6394 311.19 100.299 311.67 100.569C312.06 100.789 312.7 101.049 313.77 101.309C317.37 102.179 318.56 102.859 318.56 102.859C318.56 102.859 315.09 102.679 314.18 103.319C313.27 103.959 313.31 104.409 313.54 105.139C313.77 105.869 314.36 106.369 314.36 106.369C314.36 106.369 313.22 106.009 312.81 107.459C312.4 108.919 313.54 109.419 313.54 109.419C313.54 109.419 312.45 110.469 313.08 111.789C313.72 113.109 315.59 112.659 315.59 112.659C315.59 112.659 320.47 118.589 322.34 118.729C324.21 118.869 326.63 117.539 326.44 117.539C326.26 117.539 330.77 112.289 330.77 112.289L330.53 111.729Z" fill="#B97964"/>
<path d="M322.95 118.349C322.95 118.349 332.09 146.019 335.55 152.019C339.01 158.019 344.84 159.969 350.48 157.439C351.83 156.829 352.9 155.329 353.74 153.519C356.29 148.049 354.49 144.479 351.64 139.159C349.31 134.819 349.31 134.819 349.31 134.819L344.58 137.919L330.24 111.189L322.95 118.349Z" fill="#B97964"/>
</g>
<defs>
<clipPath id="clip0_291_204">
<rect width="500" height="425.95" fill="white"/>
</clipPath>
</defs>
</svg>
